<svg version="1.1" id="Layer_1" xmlns="http://www.w3.org/2000/svg" xmlns:xlink="http://www.w3.org/1999/xlink" x="0px" y="0px"
	 width="100%" viewBox="0 0 607 582" enable-background="new 0 0 607 582" xml:space="preserve">
<path fill="#000000" opacity="1.000000" stroke="none" 
	d="
M1.000000,212.000000 
	C1.000000,141.333359 1.000000,71.166710 1.000000,1.000047 
	C203.333252,1.000031 405.666504,1.000031 607.999817,1.000016 
	C607.999878,194.999863 607.999878,388.999725 607.999939,582.999634 
	C405.666870,582.999756 203.333725,582.999756 1.000299,582.999878 
	C1.000000,459.500000 1.000000,336.000000 1.000000,212.000000 
M371.500000,561.001404 
	C399.387634,561.001404 427.275238,561.001404 455.162872,561.001404 
	C455.297821,560.458496 455.432800,559.915588 455.567749,559.372620 
	C434.861633,547.932312 414.155518,536.491943 393.449402,525.051636 
	C395.167114,523.407288 396.397400,523.018555 397.635040,522.654724 
	C408.642120,519.418579 419.753662,516.497864 430.636017,512.886414 
	C450.657867,506.241882 469.269409,496.497314 486.579437,484.600403 
	C505.682098,471.471405 522.564941,455.768738 537.662598,438.044769 
	C559.394836,412.532227 576.295410,384.320312 586.925110,352.541901 
	C598.599304,317.641174 601.668945,281.776337 598.153503,245.195831 
	C595.225220,214.725403 587.775085,185.500946 574.371338,157.997360 
	C559.852722,128.206192 539.999695,102.418716 515.098572,80.377480 
	C492.361969,60.252151 467.727234,43.307648 439.735779,31.340961 
	C409.934631,18.600618 378.688568,12.679135 346.470825,12.325977 
	C333.059479,12.178968 319.492401,13.281848 306.225555,15.313972 
	C264.736542,21.668972 225.850662,35.097427 191.502197,60.000408 
	C175.816895,71.372429 161.463837,84.209518 148.837906,98.904121 
	C131.051010,119.605247 116.712372,142.527161 105.329712,167.320435 
	C93.112022,193.932556 85.573303,221.879074 84.310257,251.063156 
	C83.536346,268.945099 85.259308,286.947693 86.179153,304.879791 
	C86.362572,308.455383 85.718933,310.845642 82.758163,312.942078 
	C74.338478,318.903748 65.975418,324.953979 57.755272,331.187225 
	C40.196350,344.501953 24.742014,359.642426 15.412178,380.139679 
	C4.586353,403.923523 10.207618,425.254211 26.880091,441.972107 
	C39.137787,454.263214 54.863022,460.315826 71.499985,463.944153 
	C95.140900,469.099945 119.065941,468.711243 143.048569,467.111420 
	C169.862961,465.322662 196.320984,461.066254 222.237045,454.237396 
	C246.031342,447.967529 269.471069,440.334320 292.989563,433.051758 
	C297.258423,431.729919 300.099945,431.603607 303.279144,435.536652 
	C310.184265,444.079193 319.772980,447.951752 330.588898,447.832916 
	C347.686249,447.645172 362.098236,434.918488 364.767120,418.318085 
	C367.517609,401.209839 358.485779,385.341248 342.347198,379.187225 
	C328.102295,373.755310 309.980957,378.444183 301.302246,391.134094 
	C296.134827,398.689819 294.278931,406.852600 295.027771,415.746155 
	C295.434021,420.570831 293.455627,422.810089 288.740845,424.160706 
	C262.322815,431.728577 235.794876,438.752991 208.523727,442.560852 
	C184.278015,445.946289 159.992172,448.495636 135.520050,444.990173 
	C113.831291,441.883423 93.371513,435.946411 78.716667,418.133759 
	C65.225441,401.735352 61.642548,385.497467 71.999931,367.517944 
	C76.111656,360.380371 81.418190,353.770691 86.999062,347.669159 
	C105.614761,327.316681 129.051971,313.570312 153.172836,300.981659 
	C185.441895,284.140411 219.392273,271.370514 253.958862,260.133240 
	C306.972260,242.899078 361.237213,231.174606 416.303192,222.913681 
	C421.708435,222.102783 427.090759,221.139557 432.483734,220.247055 
	C310.998566,221.980194 195.812378,248.371262 88.186638,308.847504 
	C87.397392,300.498810 86.324638,293.157379 86.072205,285.787872 
	C84.973877,253.723526 91.062538,222.826675 102.261086,192.922211 
	C112.652763,165.172424 128.048218,140.290939 148.110153,118.567299 
	C172.331879,92.339294 200.863632,71.918373 233.713989,57.593472 
	C260.621735,45.859940 288.722412,39.615883 317.984497,39.144283 
	C330.086639,38.949242 342.269409,39.830547 354.319611,41.119247 
	C383.502289,44.240173 410.979980,53.169464 436.303101,67.970024 
	C474.630493,90.371132 502.553314,122.689636 522.811279,161.765381 
	C542.525513,199.792328 550.635620,240.631577 550.447388,283.241760 
	C550.313293,313.602478 545.635071,343.188293 534.914673,371.732849 
	C521.285034,408.023743 501.044281,439.815125 471.895447,465.689117 
	C445.459686,489.154816 414.761841,504.350708 380.755310,513.370972 
	C375.950195,514.645569 372.173615,513.792664 368.036652,511.416412 
	C358.374603,505.866577 348.619171,500.439911 338.612122,495.556519 
	C335.964081,494.264252 331.683960,493.948792 329.149506,495.201050 
	C318.122406,500.649536 307.318542,506.598755 296.738495,512.879700 
	C292.259918,515.538513 287.833862,516.603760 282.947296,515.673889 
	C256.743622,510.687408 231.914658,501.898224 208.780640,488.506989 
	C203.706192,485.569641 198.631104,482.633362 193.556305,479.696564 
	C193.354767,480.082794 193.153229,480.468994 192.951691,480.855225 
	C218.596268,500.540466 247.916473,512.746277 278.929291,521.507874 
	C278.906097,521.949951 278.882874,522.391968 278.859680,522.833984 
	C256.611237,534.974243 234.362793,547.114563 212.114349,559.254822 
	C212.303253,559.837036 212.492142,560.419189 212.681046,561.001404 
	C265.287354,561.001404 317.893677,561.001404 371.500000,561.001404 
M327.401947,258.922516 
	C285.102417,269.579376 243.173126,281.462616 202.394073,297.085175 
	C176.415405,307.037598 150.849548,317.902130 127.703789,333.627869 
	C114.416595,342.655518 101.885330,352.594299 94.241028,367.213104 
	C90.424469,374.511902 88.472153,382.233002 89.596794,390.739777 
	C91.076714,401.933838 97.143967,410.616455 104.321289,418.497070 
	C110.603371,425.394745 117.866859,431.398590 124.696808,437.797302 
	C125.270683,437.280701 125.844566,436.764069 126.418442,436.247467 
	C124.470558,433.527283 122.556801,430.781921 120.569176,428.091125 
	C109.059608,412.509674 109.556915,394.190552 120.799591,378.466736 
	C129.133911,366.810516 140.014511,358.246796 151.538620,350.365906 
	C175.168839,334.206146 200.991760,322.117645 227.668076,312.128632 
	C257.729584,300.871918 287.995056,290.015564 318.644928,280.510590 
	C357.402435,268.491394 396.615448,257.933960 435.673523,246.892914 
	C466.092346,238.294006 496.577057,229.928360 527.021606,221.419968 
	C528.578674,220.984787 530.032593,220.180527 531.534607,219.548111 
	C531.369690,219.109970 531.204834,218.671829 531.039978,218.233688 
	C462.865784,228.874496 395.182465,242.010513 327.401947,258.922516 
M189.675812,477.937256 
	C189.827026,478.049500 189.978241,478.161743 190.129456,478.274017 
	C190.035049,478.111115 189.940643,477.948242 189.675812,477.937256 
M187.634293,475.933044 
	C187.634293,475.933044 187.424377,475.989227 187.424377,475.989227 
	C187.424377,475.989227 187.632248,476.058014 187.634293,475.933044 
z"/>
<path fill="#272525" opacity="1.000000" stroke="none" 
	d="
M371.000000,561.001404 
	C317.893677,561.001404 265.287354,561.001404 212.681046,561.001404 
	C212.492142,560.419189 212.303253,559.837036 212.114349,559.254822 
	C234.362793,547.114563 256.611237,534.974243 278.859680,522.833984 
	C278.882874,522.391968 278.906097,521.949951 278.929291,521.507874 
	C247.916473,512.746277 218.596268,500.540466 192.951691,480.855225 
	C193.153229,480.468994 193.354767,480.082794 193.556305,479.696564 
	C198.631104,482.633362 203.706192,485.569641 208.780640,488.506989 
	C231.914658,501.898224 256.743622,510.687408 282.947296,515.673889 
	C287.833862,516.603760 292.259918,515.538513 296.738495,512.879700 
	C307.318542,506.598755 318.122406,500.649536 329.149506,495.201050 
	C331.683960,493.948792 335.964081,494.264252 338.612122,495.556519 
	C348.619171,500.439911 358.374603,505.866577 368.036652,511.416412 
	C372.173615,513.792664 375.950195,514.645569 380.755310,513.370972 
	C414.761841,504.350708 445.459686,489.154816 471.895447,465.689117 
	C501.044281,439.815125 521.285034,408.023743 534.914673,371.732849 
	C545.635071,343.188293 550.313293,313.602478 550.447388,283.241760 
	C550.635620,240.631577 542.525513,199.792328 522.811279,161.765381 
	C502.553314,122.689636 474.630493,90.371132 436.303101,67.970024 
	C410.979980,53.169464 383.502289,44.240173 354.319611,41.119247 
	C342.269409,39.830547 330.086639,38.949242 317.984497,39.144283 
	C288.722412,39.615883 260.621735,45.859940 233.713989,57.593472 
	C200.863632,71.918373 172.331879,92.339294 148.110153,118.567299 
	C128.048218,140.290939 112.652763,165.172424 102.261086,192.922211 
	C91.062538,222.826675 84.973877,253.723526 86.072205,285.787872 
	C86.324638,293.157379 87.397392,300.498810 88.186638,308.847504 
	C195.812378,248.371262 310.998566,221.980194 432.483734,220.247055 
	C427.090759,221.139557 421.708435,222.102783 416.303192,222.913681 
	C361.237213,231.174606 306.972260,242.899078 253.958862,260.133240 
	C219.392273,271.370514 185.441895,284.140411 153.172836,300.981659 
	C129.051971,313.570312 105.614761,327.316681 86.999062,347.669159 
	C81.418190,353.770691 76.111656,360.380371 71.999931,367.517944 
	C61.642548,385.497467 65.225441,401.735352 78.716667,418.133759 
	C93.371513,435.946411 113.831291,441.883423 135.520050,444.990173 
	C159.992172,448.495636 184.278015,445.946289 208.523727,442.560852 
	C235.794876,438.752991 262.322815,431.728577 288.740845,424.160706 
	C293.455627,422.810089 295.434021,420.570831 295.027771,415.746155 
	C294.278931,406.852600 296.134827,398.689819 301.302246,391.134094 
	C309.980957,378.444183 328.102295,373.755310 342.347198,379.187225 
	C358.485779,385.341248 367.517609,401.209839 364.767120,418.318085 
	C362.098236,434.918488 347.686249,447.645172 330.588898,447.832916 
	C319.772980,447.951752 310.184265,444.079193 303.279144,435.536652 
	C300.099945,431.603607 297.258423,431.729919 292.989563,433.051758 
	C269.471069,440.334320 246.031342,447.967529 222.237045,454.237396 
	C196.320984,461.066254 169.862961,465.322662 143.048569,467.111420 
	C119.065941,468.711243 95.140900,469.099945 71.499985,463.944153 
	C54.863022,460.315826 39.137787,454.263214 26.880091,441.972107 
	C10.207618,425.254211 4.586353,403.923523 15.412178,380.139679 
	C24.742014,359.642426 40.196350,344.501953 57.755272,331.187225 
	C65.975418,324.953979 74.338478,318.903748 82.758163,312.942078 
	C85.718933,310.845642 86.362572,308.455383 86.179153,304.879791 
	C85.259308,286.947693 83.536346,268.945099 84.310257,251.063156 
	C85.573303,221.879074 93.112022,193.932556 105.329712,167.320435 
	C116.712372,142.527161 131.051010,119.605247 148.837906,98.904121 
	C161.463837,84.209518 175.816895,71.372429 191.502197,60.000408 
	C225.850662,35.097427 264.736542,21.668972 306.225555,15.313972 
	C319.492401,13.281848 333.059479,12.178968 346.470825,12.325977 
	C378.688568,12.679135 409.934631,18.600618 439.735779,31.340961 
	C467.727234,43.307648 492.361969,60.252151 515.098572,80.377480 
	C539.999695,102.418716 559.852722,128.206192 574.371338,157.997360 
	C587.775085,185.500946 595.225220,214.725403 598.153503,245.195831 
	C601.668945,281.776337 598.599304,317.641174 586.925110,352.541901 
	C576.295410,384.320312 559.394836,412.532227 537.662598,438.044769 
	C522.564941,455.768738 505.682098,471.471405 486.579437,484.600403 
	C469.269409,496.497314 450.657867,506.241882 430.636017,512.886414 
	C419.753662,516.497864 408.642120,519.418579 397.635040,522.654724 
	C396.397400,523.018555 395.167114,523.407288 393.449402,525.051636 
	C414.155518,536.491943 434.861633,547.932312 455.567749,559.372620 
	C455.432800,559.915588 455.297821,560.458496 455.162872,561.001404 
	C427.275238,561.001404 399.387634,561.001404 371.000000,561.001404 
M341.499542,527.039124 
	C355.598053,527.429810 369.519684,526.064880 384.380707,523.281372 
	C379.090790,518.031860 374.195679,516.068481 367.619354,517.261902 
	C344.750305,521.412292 321.744019,522.295898 298.625336,519.291931 
	C295.129669,518.837769 291.524139,519.228699 287.969452,519.228699 
	C287.967529,519.947754 287.965637,520.666809 287.963715,521.385864 
	C305.171753,525.787659 322.709229,527.463440 341.499542,527.039124 
M337.975281,408.506439 
	C326.133057,412.899902 314.283661,417.274231 302.455261,421.704620 
	C300.336243,422.498291 297.283539,423.236359 299.171997,426.328796 
	C299.804138,427.363892 303.023071,427.845764 304.447998,427.209961 
	C317.341644,421.456726 330.112305,415.426361 342.881561,409.397888 
	C344.543304,408.613373 345.992859,407.379303 347.540680,406.353485 
	C347.345215,406.006683 347.149719,405.659851 346.954254,405.313049 
	C344.202148,406.284027 341.450043,407.255035 337.975281,408.506439 
z"/>
<path fill="#272525" opacity="1.000000" stroke="none" 
	d="
M327.804504,258.833679 
	C395.182465,242.010513 462.865784,228.874496 531.039978,218.233688 
	C531.204834,218.671829 531.369690,219.109970 531.534607,219.548111 
	C530.032593,220.180527 528.578674,220.984787 527.021606,221.419968 
	C496.577057,229.928360 466.092346,238.294006 435.673523,246.892914 
	C396.615448,257.933960 357.402435,268.491394 318.644928,280.510590 
	C287.995056,290.015564 257.729584,300.871918 227.668076,312.128632 
	C200.991760,322.117645 175.168839,334.206146 151.538620,350.365906 
	C140.014511,358.246796 129.133911,366.810516 120.799591,378.466736 
	C109.556915,394.190552 109.059608,412.509674 120.569176,428.091125 
	C122.556801,430.781921 124.470558,433.527283 126.418442,436.247467 
	C125.844566,436.764069 125.270683,437.280701 124.696808,437.797302 
	C117.866859,431.398590 110.603371,425.394745 104.321289,418.497070 
	C97.143967,410.616455 91.076714,401.933838 89.596794,390.739777 
	C88.472153,382.233002 90.424469,374.511902 94.241028,367.213104 
	C101.885330,352.594299 114.416595,342.655518 127.703789,333.627869 
	C150.849548,317.902130 176.415405,307.037598 202.394073,297.085175 
	C243.173126,281.462616 285.102417,269.579376 327.804504,258.833679 
z"/>
<path fill="#272525" opacity="1.000000" stroke="none" 
	d="
M189.761032,477.861298 
	C189.940643,477.948242 190.035049,478.111115 190.129456,478.274017 
	C189.978241,478.161743 189.827026,478.049500 189.761032,477.861298 
z"/>
<path fill="#272525" opacity="1.000000" stroke="none" 
	d="
M187.633270,475.995544 
	C187.632248,476.058014 187.424377,475.989227 187.424377,475.989227 
	C187.424377,475.989227 187.634293,475.933044 187.633270,475.995544 
z"/>
<path fill="#000000" opacity="1.000000" stroke="none" 
	d="
M340.999695,527.041626 
	C322.709229,527.463440 305.171753,525.787659 287.963715,521.385864 
	C287.965637,520.666809 287.967529,519.947754 287.969452,519.228699 
	C291.524139,519.228699 295.129669,518.837769 298.625336,519.291931 
	C321.744019,522.295898 344.750305,521.412292 367.619354,517.261902 
	C374.195679,516.068481 379.090790,518.031860 384.380707,523.281372 
	C369.519684,526.064880 355.598053,527.429810 340.999695,527.041626 
z"/>
<path fill="#000000" opacity="1.000000" stroke="none" 
	d="
M338.336609,408.366211 
	C341.450043,407.255035 344.202148,406.284027 346.954254,405.313049 
	C347.149719,405.659851 347.345215,406.006683 347.540680,406.353485 
	C345.992859,407.379303 344.543304,408.613373 342.881561,409.397888 
	C330.112305,415.426361 317.341644,421.456726 304.447998,427.209961 
	C303.023071,427.845764 299.804138,427.363892 299.171997,426.328796 
	C297.283539,423.236359 300.336243,422.498291 302.455261,421.704620 
	C314.283661,417.274231 326.133057,412.899902 338.336609,408.366211 
z"/>
</svg>