<?xml version="1.0" standalone="no"?>
<!DOCTYPE svg PUBLIC "-//W3C//DTD SVG 20010904//EN"
 "http://www.w3.org/TR/2001/REC-SVG-20010904/DTD/svg10.dtd">
<svg version="1.0" xmlns="http://www.w3.org/2000/svg"
 width="607.000000pt" height="582.000000pt" viewBox="0 0 607.000000 582.000000"
 preserveAspectRatio="xMidYMid meet">

<g transform="translate(0.000000,582.000000) scale(0.100000,-0.100000)"
fill="#000000" stroke="none">
<path d="M3235 5689 c-249 -25 -462 -67 -640 -126 -424 -138 -785 -369 -1068
-682 -420 -463 -694 -1118 -686 -1643 l2 -93 7 90 c30 357 161 758 344 1053
203 327 502 620 844 826 405 244 884 362 1330 328 488 -37 852 -168 1202 -430
145 -109 368 -344 491 -517 207 -293 360 -697 414 -1095 23 -167 30 -459 16
-620 -31 -347 -114 -641 -266 -938 -297 -584 -772 -973 -1390 -1142 l-100 -27
55 -31 c30 -18 60 -33 65 -36 21 -7 -4 -14 -120 -32 -143 -22 -513 -25 -640
-6 -137 21 -255 45 -255 52 0 4 13 13 29 19 21 9 52 10 124 2 139 -16 417 -13
554 4 208 27 200 18 76 87 -59 33 -148 82 -196 110 -105 60 -74 67 -339 -79
-123 -68 -197 -103 -218 -103 -62 0 -427 93 -491 126 -48 24 -129 52 -129 44
0 -20 377 -167 529 -206 l35 -9 -25 -16 c-13 -9 -109 -62 -214 -119 -374 -202
-445 -242 -445 -251 0 -11 2387 -12 2394 -1 3 5 -129 82 -292 171 -288 157
-340 188 -331 194 2 1 56 15 119 31 316 79 661 237 890 409 576 432 950 1050
1048 1727 22 159 22 529 -2 700 -100 727 -436 1286 -1051 1747 -298 223 -671
389 -1020 453 -190 34 -474 47 -650 29z"/>
<path d="M5045 3600 c-121 -21 -249 -46 -285 -54 -36 -8 -80 -15 -97 -16 -18
0 -160 -25 -315 -56 -1227 -241 -2191 -523 -2768 -810 -439 -219 -674 -446
-688 -667 -6 -93 13 -161 69 -247 42 -66 196 -227 258 -270 38 -26 36 -21 -25
63 -85 114 -111 255 -70 374 97 287 551 582 1357 881 459 171 807 277 1841
562 734 203 970 269 977 276 9 8 -41 1 -254 -36z"/>
<path d="M3715 3594 c-22 -2 -92 -11 -155 -19 -63 -8 -173 -22 -245 -31 -565
-68 -1317 -277 -1855 -516 -331 -146 -557 -274 -790 -447 -271 -200 -376 -305
-479 -476 -196 -327 -74 -670 297 -836 178 -80 357 -109 678 -109 496 0 1012
94 1589 291 113 38 212 69 221 69 9 0 36 -22 60 -49 26 -29 69 -62 102 -78 50
-25 68 -28 152 -28 115 0 167 22 246 100 67 67 97 142 98 245 0 61 -5 86 -27
135 -127 275 -508 279 -635 7 -23 -49 -27 -70 -27 -153 l0 -96 -85 -27 c-138
-43 -464 -122 -620 -150 -221 -40 -358 -56 -556 -63 -300 -10 -508 24 -694
114 -127 61 -238 169 -296 287 -38 78 -39 83 -39 185 0 94 3 113 27 163 91
194 312 407 606 585 565 340 1444 646 2396 833 240 47 255 54 136 63 -36 2
-83 3 -105 1z m-170 -1783 c-50 -47 -269 -162 -457 -240 l-98 -40 -16 30 c-8
17 -13 34 -9 37 5 6 568 218 585 221 2 1 0 -3 -5 -8z"/>
<path d="M832 3110 c0 -14 2 -19 5 -12 2 6 2 18 0 25 -3 6 -5 1 -5 -13z"/>
<path d="M842 2920 c0 -14 2 -19 5 -12 2 6 2 18 0 25 -3 6 -5 1 -5 -13z"/>
</g>
</svg>
